<svg width="32" height="29" viewBox="0 0 32 29" fill="none" xmlns="http://www.w3.org/2000/svg">
<circle cx="19.5" cy="15.5" r="12.5" fill="#7B4AE2" fill-opacity="0.2"/>
<path d="M16.875 20.5416C16.6525 20.5416 16.435 20.6125 16.25 20.7453C16.065 20.878 15.9208 21.0668 15.8356 21.2875C15.7505 21.5083 15.7282 21.7513 15.7716 21.9857C15.815 22.2201 15.9222 22.4354 16.0795 22.6044C16.2368 22.7734 16.4373 22.8884 16.6555 22.9351C16.8738 22.9817 17.1 22.9578 17.3055 22.8663C17.5111 22.7749 17.6868 22.62 17.8104 22.4213C17.934 22.2226 18 21.9889 18 21.75C18 21.4295 17.8815 21.1221 17.6705 20.8955C17.4595 20.6689 17.1734 20.5416 16.875 20.5416ZM12.375 20.5416H10.125C9.82663 20.5416 9.54048 20.6689 9.32951 20.8955C9.11853 21.1221 9 21.4295 9 21.75C9 22.0704 9.11853 22.3778 9.32951 22.6044C9.54048 22.831 9.82663 22.9583 10.125 22.9583H12.375C12.6734 22.9583 12.9595 22.831 13.1705 22.6044C13.3815 22.3778 13.5 22.0704 13.5 21.75C13.5 21.4295 13.3815 21.1221 13.1705 20.8955C12.9595 20.6689 12.6734 20.5416 12.375 20.5416ZM12.375 13.2916H10.125C9.82663 13.2916 9.54048 13.4189 9.32951 13.6455C9.11853 13.8721 9 14.1795 9 14.5C9 14.8204 9.11853 15.1278 9.32951 15.3544C9.54048 15.581 9.82663 15.7083 10.125 15.7083H12.375C12.6734 15.7083 12.9595 15.581 13.1705 15.3544C13.3815 15.1278 13.5 14.8204 13.5 14.5C13.5 14.1795 13.3815 13.8721 13.1705 13.6455C12.9595 13.4189 12.6734 13.2916 12.375 13.2916ZM16.875 13.2916C16.6525 13.2916 16.435 13.3625 16.25 13.4953C16.065 13.628 15.9208 13.8168 15.8356 14.0375C15.7505 14.2583 15.7282 14.5013 15.7716 14.7357C15.815 14.9701 15.9222 15.1854 16.0795 15.3544C16.2368 15.5234 16.4373 15.6385 16.6555 15.6851C16.8738 15.7317 17.1 15.7078 17.3055 15.6163C17.5111 15.5249 17.6868 15.37 17.8104 15.1713C17.934 14.9726 18 14.7389 18 14.5C18 14.1795 17.8815 13.8721 17.6705 13.6455C17.4595 13.4189 17.1734 13.2916 16.875 13.2916ZM25.875 9.66663C25.875 8.70522 25.5194 7.78318 24.8865 7.10336C24.2536 6.42354 23.3951 6.04163 22.5 6.04163H21.375C21.375 5.08022 21.0194 4.15818 20.3865 3.47836C19.7536 2.79854 18.8951 2.41663 18 2.41663H9C8.1049 2.41663 7.24645 2.79854 6.61352 3.47836C5.98058 4.15818 5.625 5.08022 5.625 6.04163H4.5C3.60489 6.04163 2.74645 6.42354 2.11351 7.10336C1.48058 7.78318 1.125 8.70522 1.125 9.66663V12.0833C1.12996 12.9775 1.44249 13.8382 2.0025 14.5C1.44249 15.1617 1.12996 16.0224 1.125 16.9166V19.3333C1.125 20.2947 1.48058 21.2167 2.11351 21.8966C2.74645 22.5764 3.60489 22.9583 4.5 22.9583H5.625C5.625 23.9197 5.98058 24.8417 6.61352 25.5216C7.24645 26.2014 8.1049 26.5833 9 26.5833H18C18.8951 26.5833 19.7536 26.2014 20.3865 25.5216C21.0194 24.8417 21.375 23.9197 21.375 22.9583H22.5C23.3951 22.9583 24.2536 22.5764 24.8865 21.8966C25.5194 21.2167 25.875 20.2947 25.875 19.3333V16.9166C25.87 16.0224 25.5575 15.1617 24.9975 14.5C25.5575 13.8382 25.87 12.9775 25.875 12.0833V9.66663ZM5.625 20.5416H4.5C4.20163 20.5416 3.91548 20.4143 3.70451 20.1877C3.49353 19.9611 3.375 19.6538 3.375 19.3333V16.9166C3.375 16.5962 3.49353 16.2888 3.70451 16.0622C3.91548 15.8356 4.20163 15.7083 4.5 15.7083H5.625C5.62996 16.6025 5.94249 17.4632 6.5025 18.125C5.94249 18.7867 5.62996 19.6474 5.625 20.5416ZM5.625 13.2916H4.5C4.20163 13.2916 3.91548 13.1643 3.70451 12.9377C3.49353 12.7111 3.375 12.4038 3.375 12.0833V9.66663C3.375 9.34616 3.49353 9.03881 3.70451 8.81221C3.91548 8.5856 4.20163 8.45829 4.5 8.45829H5.625C5.62996 9.35252 5.94249 10.2132 6.5025 10.875C5.94249 11.5367 5.62996 12.3974 5.625 13.2916ZM19.125 22.9583C19.125 23.2788 19.0065 23.5861 18.7955 23.8127C18.5845 24.0393 18.2984 24.1666 18 24.1666H9C8.70163 24.1666 8.41548 24.0393 8.20451 23.8127C7.99353 23.5861 7.875 23.2788 7.875 22.9583V20.5416C7.875 20.2212 7.99353 19.9138 8.20451 19.6872C8.41548 19.4606 8.70163 19.3333 9 19.3333H18C18.2984 19.3333 18.5845 19.4606 18.7955 19.6872C19.0065 19.9138 19.125 20.2212 19.125 20.5416V22.9583ZM19.125 15.7083C19.125 16.0288 19.0065 16.3361 18.7955 16.5627C18.5845 16.7893 18.2984 16.9166 18 16.9166H9C8.70163 16.9166 8.41548 16.7893 8.20451 16.5627C7.99353 16.3361 7.875 16.0288 7.875 15.7083V13.2916C7.875 12.9712 7.99353 12.6638 8.20451 12.4372C8.41548 12.2106 8.70163 12.0833 9 12.0833H18C18.2984 12.0833 18.5845 12.2106 18.7955 12.4372C19.0065 12.6638 19.125 12.9712 19.125 13.2916V15.7083ZM19.125 8.45829C19.125 8.77876 19.0065 9.08611 18.7955 9.31271C18.5845 9.53932 18.2984 9.66663 18 9.66663H9C8.70163 9.66663 8.41548 9.53932 8.20451 9.31271C7.99353 9.08611 7.875 8.77876 7.875 8.45829V6.04163C7.875 5.72116 7.99353 5.41381 8.20451 5.18721C8.41548 4.9606 8.70163 4.83329 9 4.83329H18C18.2984 4.83329 18.5845 4.9606 18.7955 5.18721C19.0065 5.41381 19.125 5.72116 19.125 6.04163V8.45829ZM23.625 19.3333C23.625 19.6538 23.5065 19.9611 23.2955 20.1877C23.0845 20.4143 22.7984 20.5416 22.5 20.5416H21.375C21.37 19.6474 21.0575 18.7867 20.4975 18.125C21.0575 17.4632 21.37 16.6025 21.375 15.7083H22.5C22.7984 15.7083 23.0845 15.8356 23.2955 16.0622C23.5065 16.2888 23.625 16.5962 23.625 16.9166V19.3333ZM23.625 12.0833C23.625 12.4038 23.5065 12.7111 23.2955 12.9377C23.0845 13.1643 22.7984 13.2916 22.5 13.2916H21.375C21.37 12.3974 21.0575 11.5367 20.4975 10.875C21.0575 10.2132 21.37 9.35252 21.375 8.45829H22.5C22.7984 8.45829 23.0845 8.5856 23.2955 8.81221C23.5065 9.03881 23.625 9.34616 23.625 9.66663V12.0833ZM16.875 6.04163C16.6525 6.04163 16.435 6.11249 16.25 6.24527C16.065 6.37804 15.9208 6.56676 15.8356 6.78755C15.7505 7.00834 15.7282 7.2513 15.7716 7.48569C15.815 7.72009 15.9222 7.93539 16.0795 8.10438C16.2368 8.27337 16.4373 8.38845 16.6555 8.43507C16.8738 8.4817 17.1 8.45777 17.3055 8.36631C17.5111 8.27486 17.6868 8.11998 17.8104 7.92127C17.934 7.72256 18 7.48894 18 7.24996C18 6.92949 17.8815 6.62215 17.6705 6.39554C17.4595 6.16893 17.1734 6.04163 16.875 6.04163ZM12.375 6.04163H10.125C9.82663 6.04163 9.54048 6.16893 9.32951 6.39554C9.11853 6.62215 9 6.92949 9 7.24996C9 7.57043 9.11853 7.87777 9.32951 8.10438C9.54048 8.33099 9.82663 8.45829 10.125 8.45829H12.375C12.6734 8.45829 12.9595 8.33099 13.1705 8.10438C13.3815 7.87777 13.5 7.57043 13.5 7.24996C13.5 6.92949 13.3815 6.62215 13.1705 6.39554C12.9595 6.16893 12.6734 6.04163 12.375 6.04163Z" fill="#7B4AE2"/>
</svg>
