<svg width="30" height="25" viewBox="0 0 30 25" fill="none" xmlns="http://www.w3.org/2000/svg">
<circle cx="17.5" cy="12.5" r="12.5" fill="#7B4AE2" fill-opacity="0.2"/>
<path d="M21.0375 0H8.6625C7.67788 0 6.73359 0.381971 6.03737 1.06188C5.34114 1.7418 4.95 2.66396 4.95 3.6255V4.834H3.7125C2.72788 4.834 1.78359 5.21597 1.08737 5.89588C0.391137 6.5758 0 7.49796 0 8.4595V20.5445C0 21.506 0.391137 22.4282 1.08737 23.1081C1.78359 23.788 2.72788 24.17 3.7125 24.17H16.0875C17.0721 24.17 18.0164 23.788 18.7126 23.1081C19.4089 22.4282 19.8 21.506 19.8 20.5445V19.336H21.0375C22.0221 19.336 22.9664 18.954 23.6626 18.2741C24.3589 17.5942 24.75 16.672 24.75 15.7105V3.6255C24.75 2.66396 24.3589 1.7418 23.6626 1.06188C22.9664 0.381971 22.0221 0 21.0375 0ZM17.325 20.5445C17.325 20.865 17.1946 21.1724 16.9625 21.399C16.7305 21.6257 16.4157 21.753 16.0875 21.753H3.7125C3.38429 21.753 3.06953 21.6257 2.83746 21.399C2.60538 21.1724 2.475 20.865 2.475 20.5445V12.085H17.325V20.5445ZM17.325 9.668H2.475V8.4595C2.475 8.13899 2.60538 7.8316 2.83746 7.60496C3.06953 7.37832 3.38429 7.251 3.7125 7.251H16.0875C16.4157 7.251 16.7305 7.37832 16.9625 7.60496C17.1946 7.8316 17.325 8.13899 17.325 8.4595V9.668ZM22.275 15.7105C22.275 16.031 22.1446 16.3384 21.9125 16.565C21.6805 16.7917 21.3657 16.919 21.0375 16.919H19.8V8.4595C19.7967 8.04723 19.7213 7.63853 19.5772 7.251H22.275V15.7105ZM22.275 4.834H7.425V3.6255C7.425 3.30499 7.55538 2.9976 7.78746 2.77096C8.01953 2.54432 8.33429 2.417 8.6625 2.417H21.0375C21.3657 2.417 21.6805 2.54432 21.9125 2.77096C22.1446 2.9976 22.275 3.30499 22.275 3.6255V4.834Z" fill="#7B4AE2"/>
</svg>
