<svg width="31" height="25" viewBox="0 0 31 25" fill="none" xmlns="http://www.w3.org/2000/svg">
<circle cx="18.5" cy="12.5" r="12.5" fill="#7B4AE2" fill-opacity="0.2"/>
<path d="M24.712 20.9263L23.5336 15.9379L19.8215 0.959824C19.7413 0.629428 19.5449 0.347357 19.2754 0.175382C19.006 0.0034064 18.6854 -0.0444571 18.3838 0.0422731L13.8232 1.3346C13.7143 1.20232 13.5817 1.09616 13.4337 1.02276C13.2857 0.949374 13.1254 0.910346 12.9629 0.908131H1.17845C0.865903 0.908131 0.566161 1.04429 0.345159 1.28665C0.124157 1.529 0 1.85771 0 2.20046V22.8777C0 23.2204 0.124157 23.5491 0.345159 23.7915C0.566161 24.0338 0.865903 24.17 1.17845 24.17H12.9629C13.2755 24.17 13.5752 24.0338 13.7962 23.7915C14.0172 23.5491 14.1414 23.2204 14.1414 22.8777V12.5391L16.7339 23.162C16.803 23.4439 16.9571 23.6919 17.1711 23.8656C17.385 24.0392 17.6463 24.1283 17.9124 24.1183C18.0142 24.131 18.117 24.131 18.2188 24.1183L23.9107 22.4512C24.0612 22.4071 24.2022 22.3307 24.3256 22.2264C24.449 22.1222 24.5523 21.9921 24.6295 21.8438C24.7538 21.5579 24.783 21.2333 24.712 20.9263ZM5.85688 21.637H2.32154V19.0524H5.85688V21.637ZM5.85688 16.4677H2.32154V8.71378H5.85688V16.4677ZM5.85688 6.12913H2.32154V3.54448H5.85688V6.12913ZM11.7491 21.637H8.21378V19.0524H11.7491V21.637ZM11.7491 16.4677H8.21378V8.71378H11.7491V16.4677ZM11.7491 6.12913H8.21378V3.54448H11.7491V6.12913ZM14.4006 3.88048L17.8181 2.87247L18.4309 5.36666L15.0134 6.37467L14.4006 3.88048ZM17.4528 16.3644L15.6262 8.86886L19.0437 7.86085L20.8703 15.3563L17.4528 16.3644ZM18.6312 21.3527L18.0185 18.8585L21.4359 17.8505L22.0487 20.3447L18.6312 21.3527Z" fill="#7B4AE2"/>
</svg>
