<svg width="64" height="66" viewBox="0 0 64 66" fill="none" xmlns="http://www.w3.org/2000/svg">
<path d="M10 15.0006H54V45.3936C54 45.931 53.7893 46.4464 53.4142 46.8264C53.0391 47.2064 52.5304 47.4198 52 47.4198H42C41.4696 47.4198 40.9609 47.2064 40.5858 46.8264C40.2107 46.4464 40 45.931 40 45.3936V39.315H24V53.4984C24 54.0358 23.7893 54.5512 23.4142 54.9312C23.0391 55.3112 22.5304 55.5246 22 55.5246H12C11.4696 55.5246 10.9609 55.3112 10.5858 54.9312C10.2107 54.5512 10 54.0358 10 53.4984V15.0006Z" stroke="#7B4AE2" stroke-linecap="round" stroke-linejoin="round"/>
<path d="M24 31.2102H10" stroke="#7B4AE2" stroke-linecap="round" stroke-linejoin="round"/>
<path d="M24 15.0006V39.315" stroke="#7B4AE2" stroke-linecap="round" stroke-linejoin="round"/>
<path d="M40 31.2102H54" stroke="#7B4AE2" stroke-linecap="round" stroke-linejoin="round"/>
<path d="M40 15.0006V39.315" stroke="#7B4AE2" stroke-linecap="round" stroke-linejoin="round"/>
<g filter="url(#filter0_d_21_2891)">
<circle cx="32" cy="20" r="20" fill="#7B4AE2" fill-opacity="0.2" shape-rendering="crispEdges"/>
</g>
<defs>
<filter id="filter0_d_21_2891" x="8" y="0" width="48" height="48" filterUnits="userSpaceOnUse" color-interpolation-filters="sRGB">
<feFlood flood-opacity="0" result="BackgroundImageFix"/>
<feColorMatrix in="SourceAlpha" type="matrix" values="0 0 0 0 0 0 0 0 0 0 0 0 0 0 0 0 0 0 127 0" result="hardAlpha"/>
<feOffset dy="4"/>
<feGaussianBlur stdDeviation="2"/>
<feComposite in2="hardAlpha" operator="out"/>
<feColorMatrix type="matrix" values="0 0 0 0 0 0 0 0 0 0 0 0 0 0 0 0 0 0 0.25 0"/>
<feBlend mode="normal" in2="BackgroundImageFix" result="effect1_dropShadow_21_2891"/>
<feBlend mode="normal" in="SourceGraphic" in2="effect1_dropShadow_21_2891" result="shape"/>
</filter>
</defs>
</svg>
