<svg width="32" height="33" viewBox="0 0 32 33" fill="none" xmlns="http://www.w3.org/2000/svg">
<path d="M13.5 18.2409H5C4.73478 18.2409 4.48043 18.1341 4.29289 17.9441C4.10536 17.7542 4 17.4965 4 17.2278V9.12296C4 8.85427 4.10536 8.59659 4.29289 8.40659C4.48043 8.2166 4.73478 8.10986 5 8.10986H12.5C12.7652 8.10986 13.0196 8.2166 13.2071 8.40659C13.3946 8.59659 13.5 8.85427 13.5 9.12296V20.2671C13.5 21.6105 12.9732 22.899 12.0355 23.8489C11.0979 24.7989 9.82608 25.3326 8.5 25.3326" stroke="#7B4AE2" stroke-opacity="0.5" stroke-linecap="round" stroke-linejoin="round"/>
<path d="M28 18.2409H19.5C19.2348 18.2409 18.9804 18.1341 18.7929 17.9441C18.6054 17.7542 18.5 17.4965 18.5 17.2278V9.12296C18.5 8.85427 18.6054 8.59659 18.7929 8.40659C18.9804 8.2166 19.2348 8.10986 19.5 8.10986H27C27.2652 8.10986 27.5196 8.2166 27.7071 8.40659C27.8946 8.59659 28 8.85427 28 9.12296V20.2671C28 21.6105 27.4732 22.899 26.5355 23.8489C25.5979 24.7989 24.3261 25.3326 23 25.3326" stroke="#7B4AE2" stroke-opacity="0.5" stroke-linecap="round" stroke-linejoin="round"/>
</svg>
